<?xml version="1.0" standalone="no"?>
<!DOCTYPE svg PUBLIC "-//W3C//DTD SVG 20010904//EN"
 "http://www.w3.org/TR/2001/REC-SVG-20010904/DTD/svg10.dtd">
<svg version="1.0" xmlns="http://www.w3.org/2000/svg"
 width="150.000000pt" height="150.000000pt" viewBox="0 0 150.000000 150.000000"
 preserveAspectRatio="xMidYMid meet">

<g transform="translate(0.000000,150.000000) scale(0.100000,-0.100000)"
fill="#000000" stroke="none">
<path d="M642 1354 c-85 -22 -160 -64 -216 -120 -54 -54 -108 -138 -83 -128 8
2 20 -2 27 -11 7 -8 20 -15 29 -15 11 0 7 8 -14 24 -16 13 -27 27 -23 31 7 7
73 -29 118 -64 33 -26 17 -40 -20 -17 -37 21 -40 5 -4 -19 17 -11 23 -20 16
-27 -6 -6 -33 7 -76 38 -37 25 -69 45 -71 43 -1 -2 -10 -28 -19 -58 -13 -43
-16 -103 -16 -282 0 -197 3 -235 20 -290 37 -122 122 -223 234 -278 256 -126
562 5 646 278 17 55 20 93 20 291 0 195 -3 237 -19 289 -26 83 -60 137 -123
198 -119 112 -281 157 -426 117z m48 -39 c0 -8 -4 -15 -10 -15 -16 0 -11 -37
6 -44 13 -5 14 -9 4 -21 -7 -9 -9 -26 -5 -45 6 -26 4 -30 -14 -30 -11 0 -23
-5 -27 -11 -3 -6 -14 -9 -24 -6 -10 2 -22 -4 -29 -15 -8 -13 -20 -19 -35 -16
-17 4 -22 0 -22 -16 1 -14 -6 -22 -21 -24 -27 -4 -129 90 -118 108 5 8 25 -5
61 -41 30 -29 54 -49 54 -43 0 5 -20 30 -45 54 -25 24 -45 48 -45 52 0 19 27
5 68 -34 l44 -43 -33 52 c-26 44 -30 55 -19 68 17 20 33 19 54 -4 13 -15 14
-21 5 -27 -7 -4 -15 -2 -17 4 -2 7 -8 12 -13 12 -6 0 -5 -9 1 -21 9 -15 18
-19 35 -15 16 4 25 1 29 -10 5 -13 9 -14 20 -5 11 9 15 9 19 -1 2 -7 8 -10 12
-6 5 5 -10 25 -33 46 -45 42 -49 51 -30 70 24 24 69 8 53 -18 -5 -8 -12 -7
-23 2 -13 11 -14 11 -11 -1 3 -8 20 -26 39 -40 l33 -26 -7 40 c-4 22 -9 48
-12 57 -3 10 2 18 13 21 34 9 43 7 43 -8z m84 -1 c3 -9 6 -39 7 -67 l1 -52 12
62 c14 73 17 77 45 68 27 -8 36 -40 21 -75 -6 -16 -10 -37 -8 -47 2 -11 13 6
27 44 22 59 24 61 47 51 17 -8 24 -19 24 -39 0 -15 -4 -30 -9 -33 -5 -3 -11
-18 -14 -33 l-5 -28 17 25 c30 45 59 75 67 68 4 -4 -10 -33 -30 -64 -21 -31
-35 -58 -32 -61 2 -3 21 20 42 51 36 55 44 62 56 50 7 -7 -67 -116 -87 -126
-18 -10 -48 20 -40 40 4 12 3 13 -9 3 -12 -10 -23 -10 -51 -1 -28 9 -35 17
-36 38 0 15 -3 20 -6 12 -2 -8 -7 -21 -9 -29 -3 -11 -8 -11 -16 -3 -7 7 -17 8
-29 2 -30 -16 -49 14 -49 75 0 68 7 85 35 85 13 0 26 -7 29 -16z m326 -129
c10 -12 9 -20 -5 -41 -12 -18 -20 -23 -28 -15 -7 7 -6 15 3 26 18 22 -4 19
-24 -4 -15 -16 -15 -20 -1 -31 8 -7 12 -17 8 -24 -11 -16 -12 -67 -2 -60 5 3
18 22 29 43 21 43 46 57 67 40 17 -15 13 -51 -6 -57 -10 -3 -12 1 -8 17 9 35
-10 24 -35 -21 -29 -54 -72 -65 -88 -23 -5 14 -17 28 -25 31 -26 10 -16 37 32
86 51 51 63 57 83 33z m-252 -74 c76 -39 131 -124 133 -205 0 -17 4 -40 8 -51
8 -19 8 -19 19 0 16 29 27 10 13 -22 -10 -23 -10 -26 0 -15 15 14 39 16 39 3
0 -5 -10 -13 -22 -17 l-23 -7 23 -10 c31 -14 28 -31 -5 -22 -23 5 -26 4 -15
-6 6 -7 12 -20 12 -28 0 -12 -3 -11 -18 2 -10 10 -22 17 -25 17 -4 0 -7 -45
-7 -100 0 -55 -4 -100 -8 -100 -5 0 -17 9 -27 20 -21 23 -37 26 -29 6 7 -19 2
-21 -128 -61 l-113 -34 -30 24 c-86 70 -98 79 -92 69 4 -7 23 -48 42 -93 29
-68 31 -80 15 -68 -65 45 -90 112 -90 237 0 99 -6 114 -30 85 -18 -22 -32 -18
-20 5 9 17 8 20 -10 20 -11 0 -20 5 -20 10 0 6 10 10 23 10 l22 0 -25 20 c-14
10 -21 22 -17 26 4 4 13 2 19 -4 21 -21 31 -13 15 12 -15 22 -13 36 4 36 4 0
11 -10 15 -22 l8 -23 7 25 c4 14 8 43 8 65 3 76 58 158 136 198 43 23 146 22
193 -2z m-452 -277 c18 -14 18 -15 -6 -8 -31 8 -50 24 -29 24 8 0 24 -7 35
-16z m734 1 c-30 -17 -40 -18 -40 -6 0 10 22 18 50 19 8 1 4 -5 -10 -13z
m-725 -36 c4 -5 -8 -9 -25 -9 -17 0 -29 4 -26 8 7 11 45 12 51 1z m740 1 c4
-6 -7 -10 -24 -10 -17 0 -31 5 -31 10 0 6 11 10 24 10 14 0 28 -4 31 -10z
m-735 -29 c0 -5 -13 -14 -30 -20 -16 -5 -30 -6 -30 -1 0 7 23 18 58 29 1 1 2
-3 2 -8z m730 -22 c0 -5 -11 -3 -25 3 -14 6 -25 15 -25 19 0 5 11 3 25 -3 14
-6 25 -15 25 -19z m-676 -149 l1 -65 -68 -3 -67 -3 0 71 0 71 67 -3 66 -3 1
-65z m681 45 c14 -13 25 -33 25 -45 0 -26 -43 -70 -68 -70 -31 0 -72 38 -72
68 0 33 36 72 67 72 13 0 35 -11 48 -25z m-188 -152 c-39 -74 -125 -126 -207
-126 -61 1 -132 24 -94 30 12 2 86 32 165 67 79 35 145 62 147 61 2 -2 -3 -16
-11 -32z m145 -75 c34 -54 -54 -94 -124 -57 -52 28 22 96 85 78 17 -5 34 -14
39 -21z m-582 4 c17 -14 21 -24 15 -41 -16 -53 -145 -47 -145 7 0 48 85 70
130 34z m11 -111 c-7 -5 -10 -14 -7 -20 4 -6 3 -11 -3 -11 -14 0 -23 18 -16
30 3 6 14 10 23 10 14 0 14 -2 3 -9z m39 -5 c0 -8 -7 -16 -15 -20 -17 -6 -18
-4 -9 18 8 20 24 21 24 2z m90 2 c0 -9 3 -9 8 -2 10 14 134 12 139 -3 6 -17
-18 -28 -28 -12 -6 9 -9 10 -9 2 0 -8 -9 -9 -27 -5 -35 9 -55 9 -71 -1 -7 -5
-15 -2 -18 8 -6 13 -8 14 -15 3 -8 -11 -10 -11 -18 1 -6 9 -11 10 -15 2 -10
-16 -26 -14 -26 4 0 11 11 15 40 15 25 0 40 -5 40 -12z m210 8 c0 -2 3 -11 6
-20 3 -9 1 -16 -5 -16 -6 0 -11 8 -11 17 0 15 -2 14 -15 -3 -14 -19 -14 -18
-15 4 0 15 6 22 20 22 11 0 20 -2 20 -4z m50 -10 c0 -8 -7 -16 -15 -20 -17 -6
-18 -4 -9 18 8 20 24 21 24 2z m32 5 c-11 -6 -9 -9 6 -13 15 -4 19 -2 15 8 -3
8 0 14 6 14 6 0 11 -4 11 -10 0 -5 0 -13 0 -17 0 -12 -49 -13 -55 -2 -8 12 3
29 18 29 8 0 8 -3 -1 -9z"/>
<path d="M546 1155 c4 -8 11 -15 16 -15 6 0 5 6 -2 15 -7 8 -14 15 -16 15 -2
0 -1 -7 2 -15z"/>
<path d="M743 1250 c0 -36 2 -50 4 -32 2 17 2 47 0 65 -2 17 -4 3 -4 -33z"/>
<path d="M827 1280 c-3 -11 -1 -20 4 -20 5 0 9 9 9 20 0 11 -2 20 -4 20 -2 0
-6 -9 -9 -20z"/>
<path d="M917 1263 c-4 -3 -7 -11 -7 -17 0 -6 5 -5 12 2 6 6 9 14 7 17 -3 3
-9 2 -12 -2z"/>
<path d="M886 1194 c-4 -9 -4 -19 -1 -22 2 -3 7 3 11 12 4 9 4 19 1 22 -2 3
-7 -3 -11 -12z"/>
<path d="M1000 1105 c-8 -9 -8 -15 -2 -15 12 0 26 19 19 26 -2 2 -10 -2 -17
-11z"/>
<path d="M740 1099 c0 -6 -7 -9 -14 -6 -10 4 -13 1 -10 -8 5 -11 10 -12 25 -2
16 10 21 9 29 -3 7 -11 10 -11 10 -2 0 7 5 10 12 6 7 -4 8 -3 4 5 -4 6 -11 9
-16 6 -5 -3 -11 -1 -15 5 -8 13 -25 13 -25 -1z"/>
<path d="M716 1031 c-3 -4 6 -6 19 -3 14 2 25 6 25 8 0 8 -39 4 -44 -5z"/>
<path d="M738 1013 c6 -2 18 -2 25 0 6 3 1 5 -13 5 -14 0 -19 -2 -12 -5z"/>
<path d="M675 980 c-3 -5 -1 -10 4 -10 6 0 11 5 11 10 0 6 -2 10 -4 10 -3 0
-8 -4 -11 -10z"/>
<path d="M712 890 c0 -19 2 -27 5 -17 2 9 2 25 0 35 -3 9 -5 1 -5 -18z"/>
<path d="M681 884 c0 -11 3 -14 6 -6 3 7 2 16 -1 19 -3 4 -6 -2 -5 -13z"/>
<path d="M778 894 c-6 -6 16 -56 39 -89 13 -18 14 -16 7 20 -10 61 -28 88 -46
69z"/>
<path d="M836 872 c4 -15 11 -35 16 -44 10 -20 29 -25 24 -5 -3 6 -7 24 -10
38 -3 15 -13 29 -21 33 -12 4 -14 0 -9 -22z"/>
<path d="M710 811 c0 -11 5 -23 10 -26 6 -3 10 3 10 14 0 11 -4 23 -10 26 -5
3 -10 -3 -10 -14z"/>
<path d="M930 791 c0 -25 6 -27 13 -6 4 8 2 17 -3 20 -6 4 -10 -3 -10 -14z"/>
<path d="M722 740 c0 -14 2 -19 5 -12 2 6 2 18 0 25 -3 6 -5 1 -5 -13z"/>
<path d="M928 723 c-3 -12 0 -20 8 -20 16 0 17 6 5 25 -6 11 -9 9 -13 -5z"/>
<path d="M885 669 c-4 -6 -1 -10 6 -8 28 3 38 -1 33 -16 -3 -8 -9 -14 -12 -13
-13 3 -172 -35 -168 -40 3 -2 45 4 95 14 88 18 105 28 94 62 -6 15 -39 16 -48
1z"/>
<path d="M804 659 c-4 -8 54 -4 62 4 3 2 -9 4 -26 3 -18 0 -34 -4 -36 -7z"/>
<path d="M740 650 c0 -5 5 -10 10 -10 6 0 10 5 10 10 0 6 -4 10 -10 10 -5 0
-10 -4 -10 -10z"/>
<path d="M721 614 c0 -11 3 -14 6 -6 3 7 2 16 -1 19 -3 4 -6 -2 -5 -13z"/>
<path d="M1081 631 c-7 -5 -11 -19 -9 -32 4 -33 52 -35 56 -2 4 25 -27 46 -47
34z"/>
<path d="M1030 401 c0 -6 4 -13 10 -16 6 -3 7 1 4 9 -7 18 -14 21 -14 7z"/>
<path d="M458 403 c6 -2 12 -9 12 -14 0 -6 -5 -7 -12 -3 -7 5 -8 3 -3 -5 5 -9
11 -9 17 -3 12 12 2 32 -15 31 -9 0 -9 -2 1 -6z"/>
</g>
</svg>
